<?xml version="1.0" encoding="UTF-8" standalone="no"?>
<svg
   id="Layer_1"
   viewBox="0 0 300 300"
   version="1.1"
   sodipodi:docname="play.svg"
   inkscape:version="1.4.2 (ebf0e940, 2025-05-08)"
   xmlns:inkscape="http://www.inkscape.org/namespaces/inkscape"
   xmlns:sodipodi="http://sodipodi.sourceforge.net/DTD/sodipodi-0.dtd"
   xmlns="http://www.w3.org/2000/svg"
   xmlns:svg="http://www.w3.org/2000/svg">
  <defs
     id="defs1" />
  <sodipodi:namedview
     id="namedview1"
     pagecolor="#ffffff"
     bordercolor="#000000"
     borderopacity="0.25"
     inkscape:showpageshadow="2"
     inkscape:pageopacity="0.0"
     inkscape:pagecheckerboard="0"
     inkscape:deskcolor="#d1d1d1"
     inkscape:zoom="2.7733333"
     inkscape:cx="150.18029"
     inkscape:cy="150"
     inkscape:window-width="976"
     inkscape:window-height="1027"
     inkscape:window-x="2240"
     inkscape:window-y="25"
     inkscape:window-maximized="0"
     inkscape:current-layer="Layer_1" />
  <path
     d="m 58.03,150.53436 c 0,31.3 0.1,62.59 -0.08,93.89 -0.04,7.5 1.42,13.99 8.44,17.83 7.27,3.98 14.11,2.06 20.66,-2.15 42.64,-27.4 85.29,-54.78 127.94,-82.17 5.31,-3.41 10.65,-6.78 15.94,-10.22 14.48,-9.41 14.98,-24.06 0.61,-33.87 -22.92,-15.65 -46.11,-30.89 -69.31,-46.119999 -24.31,-15.96 -48.76,-31.71 -73.14,-47.56 -6.96,-4.53 -14.08,-6.62 -21.92,-2.03 -6.36,3.72 -9.16,9.25 -9.15,16.52 0.05,31.96 0.02,63.929999 0.02,95.889999 z"
     id="path1"
     style="fill:#406d76;fill-opacity:1" />
</svg>
